<?xml version="1.0" encoding="utf-8"?>
<!-- Generator: Adobe Illustrator 28.0.0, SVG Export Plug-In . SVG Version: 6.00 Build 0)  -->
<svg version="1.1" id="Lager_1" xmlns="http://www.w3.org/2000/svg" xmlns:xlink="http://www.w3.org/1999/xlink" x="0px" y="0px"
	 viewBox="0 0 190.4 100" style="enable-background:new 0 0 190.4 100;" xml:space="preserve">
<style type="text/css">
	.st0{clip-path:url(#SVGID_00000008147375603754538510000009065856035641920136_);}
	.st1{fill:#FFFFFF;}
	.st2{fill:#B0E2FF;}
	.st3{fill:#00001E;}
	.st4{clip-path:url(#XMLID_00000052098336952255870310000017651034064283230365_);}
	.st5{clip-path:url(#SVGID_00000119802701707880644530000000007334378440470451_);}
	.st6{clip-path:url(#SVGID_00000182487775135537227170000002423483238419901349_);}
	.st7{clip-path:url(#SVGID_00000142880084468858711680000009528680739943129473_);}
	.st8{clip-path:url(#XMLID_00000029008952098631539320000005745433697784564624_);}
	.st9{clip-path:url(#SVGID_00000093151362950368762850000011267349905461771138_);}
	.st10{clip-path:url(#XMLID_00000183214366177371530780000005316678374718227094_);}
	.st11{clip-path:url(#SVGID_00000003093924854126534060000012229867610623428785_);}
	.st12{fill:#2968FF;}
	.st13{fill:#6EC7FF;}
</style>
<path class="st2" d="M88.6,98.3c0,1,0.8,1.7,1.8,1.7c42.5-1.2,79.5-24.7,99.8-59.2c0.2-0.3,0.2-0.6,0.2-0.9V1.7
	c0-0.9-0.8-1.7-1.7-1.7h-41.1c-0.7,0-1.3,0.4-1.6,1.1c-9.1,24.7-27.5,34.9-40.3,39.2c-1.9,0.6-4-0.8-4-2.8c0-10.1,0-35.7,0-35.7
	c0-0.9-0.8-1.7-1.7-1.7H59c-0.7,0-1.3,0.4-1.6,1.1l0.4,0.8l-0.5-0.8C49.1,24.5,27.4,41.6,1.6,43C0.7,43,0,43.8,0,44.7l0,53.6
	c0,1,0.8,1.7,1.8,1.7C34.5,99,64,84.9,85.1,62.6c1.2-1.3,3.5-0.5,3.5,1.4L88.6,98.3z"/>
</svg>
